<svg width="80" height="40" viewBox="0 0 80 40" fill="none" xmlns="http://www.w3.org/2000/svg">
<g clip-path="url(#clip0_12327_60081)">
<path d="M40.0005 0C17.9093 0 0.000488281 8.95446 0.000488281 19.9999C0.000488281 31.0455 17.9093 39.9998 40.0005 39.9998C62.0917 39.9998 80.0005 31.0454 80.0005 19.9999C80.0005 8.9543 62.0917 0 40.0005 0ZM40.0005 36.8424C19.653 36.8424 3.15806 29.3018 3.15806 19.9999C3.15806 10.698 19.6531 3.15741 40.0005 3.15741C60.348 3.15741 76.8429 10.698 76.8429 19.9999C76.8429 29.3018 60.3479 36.8424 40.0005 36.8424ZM34.956 16.4912V13.3331H46.2405V16.4912H42.1779V26.6667H39.0192V16.4912H34.956ZM59.8616 13.3331V26.6669H56.7042L50.9773 18.7294V26.6669H47.8197V13.3331H50.9771L56.704 21.2706V13.3331H59.8616ZM20.0453 26.6669V13.3331H23.2029L26.711 18.7294L30.2191 13.3331H33.3754V26.6669H30.2191V19.125L27.8241 22.8063H25.5979L23.2029 19.125V26.6669H20.0453Z" fill="#1D1D1D"/>
</g>
<defs>
<clipPath id="clip0_12327_60081">
<rect width="80" height="40" fill="white"/>
</clipPath>
</defs>
</svg>
